<svg width="187" height="47" viewBox="0 0 187 47" fill="none" xmlns="http://www.w3.org/2000/svg">
<path d="M12.608 30.08C10.7307 29.44 9.024 28.8 7.488 28.16C5.952 27.4774 4.62934 26.6667 3.52 25.728C2.41067 24.7894 1.536 23.68 0.896003 22.4C0.298669 21.0774 2.6226e-06 19.4774 2.6226e-06 17.6C2.6226e-06 13.9734 1.38667 11.072 4.16 8.89603C6.976 6.72003 10.9013 5.63203 15.936 5.63203C17.7707 5.63203 19.4773 5.76003 21.056 6.01603C22.6347 6.27203 23.9787 6.67736 25.088 7.23203C26.24 7.74403 27.136 8.42669 27.776 9.28003C28.416 10.0907 28.736 11.0507 28.736 12.16C28.736 13.2694 28.48 14.2294 27.968 15.04C27.456 15.808 26.8373 16.4694 26.112 17.024C25.1733 16.4267 23.9147 15.9147 22.336 15.488C20.7573 15.0187 19.0293 14.784 17.152 14.784C15.232 14.784 13.824 15.0614 12.928 15.616C12.032 16.128 11.584 16.7894 11.584 17.6C11.584 18.24 11.8613 18.7734 12.416 19.2C12.9707 19.584 13.8027 19.9467 14.912 20.288L18.304 21.376C22.3147 22.656 25.3867 24.2987 27.52 26.304C29.696 28.2667 30.784 30.9547 30.784 34.368C30.784 37.9947 29.3547 40.9387 26.496 43.2C23.6373 45.4187 19.4347 46.528 13.888 46.528C11.9253 46.528 10.0907 46.3574 8.384 46.016C6.72 45.7174 5.248 45.2694 3.968 44.672C2.73067 44.032 1.74934 43.264 1.024 42.368C0.341336 41.4294 2.6226e-06 40.3627 2.6226e-06 39.168C2.6226e-06 37.9307 0.362669 36.8854 1.088 36.032C1.81334 35.136 2.60267 34.4534 3.456 33.984C4.65067 34.9227 6.10134 35.7334 7.808 36.416C9.55734 37.0987 11.456 37.44 13.504 37.44C15.5947 37.44 17.0667 37.12 17.92 36.48C18.7733 35.84 19.2 35.0934 19.2 34.24C19.2 33.3867 18.8587 32.7467 18.176 32.32C17.4933 31.8507 16.5333 31.4027 15.296 30.976L12.608 30.08ZM46.898 34.816C46.898 35.9254 47.2393 36.7147 47.922 37.184C48.6473 37.6534 49.65 37.888 50.93 37.888C51.57 37.888 52.2313 37.8454 52.914 37.76C53.5967 37.632 54.194 37.4827 54.706 37.312C55.09 37.7814 55.41 38.3147 55.666 38.912C55.9647 39.4667 56.114 40.1494 56.114 40.96C56.114 42.5814 55.4953 43.904 54.258 44.928C53.0633 45.952 50.93 46.464 47.858 46.464C44.1033 46.464 41.202 45.6107 39.154 43.904C37.1487 42.1974 36.146 39.424 36.146 35.584V8.19203C36.6153 8.06403 37.2767 7.93603 38.13 7.80803C39.026 7.63736 39.9647 7.55202 40.946 7.55202C42.8233 7.55202 44.274 7.89336 45.298 8.57603C46.3647 9.21603 46.898 10.6027 46.898 12.736V16.832H55.282C55.538 17.3014 55.7727 17.8987 55.986 18.624C56.242 19.3067 56.37 20.0747 56.37 20.928C56.37 22.4214 56.0287 23.5094 55.346 24.192C54.706 24.832 53.8313 25.152 52.722 25.152H46.898V34.816ZM61.387 5.76003C61.387 4.13869 61.9203 2.77336 62.987 1.66402C64.0963 0.554693 65.547 2.67029e-05 67.339 2.67029e-05C69.131 2.67029e-05 70.5603 0.554693 71.627 1.66402C72.7363 2.77336 73.291 4.13869 73.291 5.76003C73.291 7.38136 72.7363 8.74669 71.627 9.85603C70.5603 10.9654 69.131 11.52 67.339 11.52C65.547 11.52 64.0963 10.9654 62.987 9.85603C61.9203 8.74669 61.387 7.38136 61.387 5.76003ZM72.779 45.44C72.3097 45.5254 71.6057 45.632 70.667 45.76C69.771 45.9307 68.8537 46.016 67.915 46.016C66.9763 46.016 66.123 45.952 65.355 45.824C64.6297 45.696 64.011 45.44 63.499 45.056C62.987 44.672 62.5817 44.16 62.283 43.52C62.027 42.8374 61.899 41.9627 61.899 40.896V14.848C62.3683 14.7627 63.051 14.656 63.947 14.528C64.8857 14.3574 65.8243 14.272 66.763 14.272C67.7017 14.272 68.5337 14.336 69.259 14.464C70.027 14.592 70.667 14.848 71.179 15.232C71.691 15.616 72.075 16.1494 72.331 16.832C72.6297 17.472 72.779 18.3254 72.779 19.392V45.44ZM97.2415 22.016C96.1748 22.016 95.1508 22.1867 94.1695 22.528C93.2308 22.8694 92.3988 23.3814 91.6735 24.064C90.9908 24.704 90.4362 25.5147 90.0095 26.496C89.5828 27.4774 89.3695 28.6294 89.3695 29.952C89.3695 32.5974 90.1162 34.5814 91.6095 35.904C93.1455 37.2267 95.0015 37.888 97.1775 37.888C98.4575 37.888 99.5668 37.7387 100.506 37.44C101.444 37.1414 102.276 36.8214 103.002 36.48C103.855 37.0774 104.495 37.7387 104.922 38.464C105.348 39.1467 105.562 39.9787 105.562 40.96C105.562 42.7094 104.73 44.0747 103.066 45.056C101.402 45.9947 99.0975 46.464 96.1535 46.464C93.4655 46.464 91.0335 46.08 88.8575 45.312C86.6815 44.5014 84.8042 43.392 83.2255 41.984C81.6895 40.5334 80.4948 38.8054 79.6415 36.8C78.7882 34.7947 78.3615 32.576 78.3615 30.144C78.3615 27.328 78.8095 24.8747 79.7055 22.784C80.6442 20.6507 81.9028 18.9014 83.4815 17.536C85.0602 16.1707 86.8735 15.1467 88.9215 14.464C91.0122 13.7814 93.2095 13.44 95.5135 13.44C98.5855 13.44 100.954 13.9947 102.618 15.104C104.282 16.2134 105.114 17.6427 105.114 19.392C105.114 20.2027 104.922 20.9707 104.538 21.696C104.154 22.3787 103.706 22.976 103.194 23.488C102.468 23.1467 101.594 22.8267 100.57 22.528C99.5455 22.1867 98.4362 22.016 97.2415 22.016ZM141.418 39.872C141.205 41.8774 140.607 43.4134 139.626 44.48C138.687 45.5467 137.301 46.08 135.466 46.08C134.101 46.08 132.885 45.76 131.818 45.12C130.751 44.4374 129.599 43.3067 128.362 41.728L122.026 33.792V45.44C121.557 45.5254 120.853 45.632 119.914 45.76C119.018 45.9307 118.101 46.016 117.162 46.016C116.223 46.016 115.37 45.952 114.602 45.824C113.877 45.696 113.258 45.44 112.746 45.056C112.234 44.672 111.829 44.16 111.53 43.52C111.274 42.8374 111.146 41.9627 111.146 40.896V3.84003C111.615 3.71203 112.298 3.58403 113.194 3.45603C114.133 3.28536 115.071 3.20003 116.01 3.20003C116.949 3.20003 117.781 3.26403 118.506 3.39202C119.274 3.52003 119.914 3.77603 120.426 4.16003C120.938 4.54403 121.322 5.07736 121.578 5.76003C121.877 6.40003 122.026 7.25336 122.026 8.32003V25.216L133.034 13.952C135.253 13.952 137.023 14.4427 138.346 15.424C139.711 16.4054 140.394 17.6427 140.394 19.136C140.394 19.776 140.287 20.3734 140.074 20.928C139.861 21.44 139.519 21.9734 139.05 22.528C138.623 23.0827 138.047 23.68 137.322 24.32C136.639 24.9174 135.829 25.6214 134.89 26.432L131.178 29.632L141.418 39.872ZM158.55 45.248C158.081 45.376 157.334 45.504 156.31 45.632C155.329 45.76 154.347 45.824 153.366 45.824C152.385 45.824 151.51 45.7387 150.742 45.568C150.017 45.44 149.398 45.184 148.886 44.8C148.374 44.416 147.99 43.8827 147.734 43.2C147.478 42.5174 147.35 41.6214 147.35 40.512V6.72003C147.819 6.63469 148.566 6.52803 149.59 6.40003C150.614 6.22936 151.595 6.14403 152.534 6.14403C153.515 6.14403 154.369 6.22936 155.094 6.40003C155.862 6.52803 156.502 6.78403 157.014 7.16803C157.526 7.55203 157.91 8.08536 158.166 8.76803C158.422 9.45069 158.55 10.3467 158.55 11.456V45.248ZM176.898 34.816C176.898 35.9254 177.239 36.7147 177.922 37.184C178.647 37.6534 179.65 37.888 180.93 37.888C181.57 37.888 182.231 37.8454 182.914 37.76C183.597 37.632 184.194 37.4827 184.706 37.312C185.09 37.7814 185.41 38.3147 185.666 38.912C185.965 39.4667 186.114 40.1494 186.114 40.96C186.114 42.5814 185.495 43.904 184.258 44.928C183.063 45.952 180.93 46.464 177.858 46.464C174.103 46.464 171.202 45.6107 169.154 43.904C167.149 42.1974 166.146 39.424 166.146 35.584V8.19203C166.615 8.06403 167.277 7.93603 168.13 7.80803C169.026 7.63736 169.965 7.55202 170.946 7.55202C172.823 7.55202 174.274 7.89336 175.298 8.57603C176.365 9.21603 176.898 10.6027 176.898 12.736V16.832H185.282C185.538 17.3014 185.773 17.8987 185.986 18.624C186.242 19.3067 186.37 20.0747 186.37 20.928C186.37 22.4214 186.029 23.5094 185.346 24.192C184.706 24.832 183.831 25.152 182.722 25.152H176.898V34.816Z" fill="#1D1B1E"/>
</svg>
